<svg version="1.0" xmlns="http://www.w3.org/2000/svg"
 width="640.000000pt" height="1280.000000pt" viewBox="0 0 640.000000 1280.000000"
 preserveAspectRatio="xMidYMid meet">
<g transform="translate(0.000000,1280.000000) scale(0.100000,-0.100000)"
fill="#000000" stroke="none">
<path d="M2202 12629 c-89 -7 -108 -11 -135 -33 -87 -70 -157 -115 -202 -130
-59 -21 -75 -32 -75 -57 0 -11 -13 -22 -35 -30 -23 -9 -35 -19 -35 -32 0 -13
-5 -17 -16 -13 -12 5 -15 0 -13 -22 2 -16 -7 -43 -23 -67 -35 -54 -47 -193
-23 -252 9 -21 22 -94 29 -162 12 -116 12 -125 -6 -160 -16 -30 -18 -48 -13
-106 8 -92 48 -174 129 -262 l63 -68 6 -135 c4 -74 3 -173 -1 -219 -7 -82 -8
-85 -35 -92 -15 -4 -48 -30 -73 -58 -37 -41 -70 -63 -187 -120 -157 -76 -276
-129 -322 -141 -202 -56 -259 -69 -380 -91 -60 -12 -114 -24 -118 -28 -9 -9
-47 -184 -47 -217 0 -19 -48 -154 -69 -194 -50 -97 -131 -638 -131 -881 0 -72
-6 -136 -15 -170 -8 -30 -22 -81 -31 -114 -9 -33 -20 -71 -25 -85 -5 -14 -13
-79 -19 -145 -15 -189 -29 -279 -46 -288 -8 -5 -26 -27 -40 -49 -36 -57 -37
-133 -1 -212 31 -66 34 -114 12 -157 -13 -25 -15 -69 -11 -287 5 -327 21 -616
36 -667 14 -47 25 -126 40 -290 18 -198 28 -247 58 -277 29 -32 57 -35 83 -12
25 22 44 12 77 -40 24 -37 31 -64 40 -148 24 -213 27 -338 19 -893 -6 -472 -4
-604 8 -770 9 -110 21 -230 27 -267 6 -37 9 -115 6 -176 -5 -94 -9 -114 -29
-141 -39 -53 -29 -141 23 -197 18 -20 19 -31 10 -216 -8 -154 -7 -216 4 -294
8 -54 21 -146 29 -204 37 -260 74 -627 105 -1060 18 -257 53 -529 84 -665 41
-178 40 -169 21 -221 -21 -58 -58 -108 -163 -224 -43 -47 -122 -145 -176 -218
l-98 -132 4 -51 c4 -37 12 -57 33 -79 28 -29 32 -30 119 -30 89 1 111 4 231
34 125 31 142 36 207 64 76 32 129 89 168 179 26 62 61 81 118 67 69 -18 210
24 257 76 17 19 19 36 19 173 0 138 -3 158 -26 218 -19 50 -23 71 -15 85 7 12
6 110 -1 308 -7 160 -14 377 -17 481 -3 105 -10 233 -15 285 -6 52 -15 185
-20 295 -26 521 -27 529 -61 603 -35 75 -35 71 -19 400 l8 172 31 35 c62 71
68 94 75 290 4 99 11 209 17 245 22 135 59 315 83 405 32 116 48 171 57 195 4
14 13 43 18 65 5 22 17 65 26 95 9 30 27 96 40 145 13 50 38 144 55 210 18 66
37 141 43 168 6 26 15 47 19 47 13 0 9 -44 -7 -90 -16 -46 -19 -148 -5 -220 4
-25 15 -82 24 -128 8 -45 18 -87 22 -93 9 -15 21 -309 34 -814 10 -401 13
-457 31 -513 10 -35 16 -68 12 -74 -3 -7 -10 -212 -14 -457 -6 -384 -30 -859
-45 -882 -9 -15 -6 -217 4 -235 10 -20 -7 -128 -27 -169 -5 -11 -19 -42 -31
-70 -12 -27 -27 -63 -34 -80 -69 -160 -85 -220 -87 -320 -2 -149 33 -310 84
-387 49 -74 52 -87 51 -212 0 -93 -5 -128 -17 -151 -21 -37 -21 -62 -2 -99 8
-15 21 -76 29 -135 8 -58 19 -118 25 -134 19 -49 102 -128 168 -158 58 -28 68
-29 201 -29 129 0 141 2 168 22 41 33 60 56 91 117 25 49 28 64 27 145 -1 86
-4 95 -45 176 -23 47 -60 113 -81 148 l-38 62 21 18 c25 21 43 54 65 119 25
74 88 230 124 308 18 39 39 95 45 125 7 30 22 91 34 134 12 44 21 106 21 140
0 33 5 121 10 195 6 75 15 219 20 321 5 102 17 277 25 390 9 113 22 293 30
400 8 107 21 263 30 345 37 345 45 429 59 615 16 209 21 243 59 390 42 162 65
327 87 625 6 72 17 198 25 280 8 83 21 223 29 313 8 89 18 167 21 173 7 10 26
19 71 33 19 6 22 2 27 -26 3 -18 0 -125 -5 -238 -12 -238 -8 -260 44 -260 74
1 98 47 108 208 4 67 10 126 14 130 14 13 55 -52 62 -96 8 -56 -1 -161 -15
-175 -6 -6 -11 -18 -11 -27 0 -9 -16 -20 -42 -28 -48 -15 -78 -38 -78 -59 0
-7 -8 -16 -17 -20 -51 -18 -79 -73 -51 -101 30 -30 197 -8 295 38 35 17 67 30
73 30 15 0 85 93 99 131 7 19 16 41 20 49 4 8 18 49 30 90 12 41 27 86 32 100
7 14 10 95 8 196 -3 154 -1 176 16 208 12 23 29 37 47 41 23 5 29 15 41 58 40
150 37 119 63 582 18 322 16 975 -4 1035 -6 19 -18 116 -26 215 -8 99 -19 192
-25 208 -28 73 -41 165 -42 305 -1 178 -15 312 -59 557 -6 36 -8 118 -5 205 7
163 -5 343 -29 440 -43 174 -83 405 -91 524 -7 117 -18 156 -45 156 -10 0 -51
14 -91 31 -97 41 -103 43 -179 69 -36 12 -72 25 -80 30 -9 4 -30 11 -48 14
-17 4 -34 12 -37 17 -4 5 -14 9 -23 9 -9 1 -35 9 -57 20 -22 11 -48 19 -57 20
-9 0 -19 4 -22 9 -3 4 -19 11 -35 14 -75 15 -239 114 -358 216 -23 19 -30 41
-14 41 22 0 143 329 156 425 3 28 17 81 31 118 26 74 33 202 14 252 -8 20 -6
32 5 48 18 25 20 222 4 347 -5 41 -12 99 -15 128 l-7 52 67 61 c36 33 66 65
66 70 0 4 -23 11 -50 15 -47 6 -54 11 -108 76 -31 38 -74 90 -94 114 -20 24
-41 50 -45 57 -4 7 -30 27 -58 43 -161 98 -236 112 -483 93z" fill='white'/>
</g>
</svg>
