<svg height="508" xmlns="http://www.w3.org/2000/svg" width="2500" viewBox="0 0 394.00000000000006 79.433" style="background-color: black;">

<path d="M261.919.033h68.628V12.7h-27.224v66.639H289.71V12.7h-27.791V.033z" fill="white"/>
<path d="M149.052.033V12.7h-55.01v20.377h44.239v12.667H94.042v20.928h55.01V79.34H80.43V12.7h-.006V.033h68.628z" fill="white"/>
<path d="M183.32.066h-17.814l63.806 79.306h17.866l-31.907-39.626L247.127.126l-17.815.028-22.96 28.516L183.32.066z" fill="white"/>
<path d="M201.6 56.715l-8.921-11.092-27.224 33.81h17.865l18.28-22.718z" fill="white"/>
<path clip-rule="evenodd" d="M80.907 79.339L17.015 0H0v79.306h13.612V16.952l50.195 62.387h17.1z" fill="white" fill-rule="evenodd"/>
<path d="M333.607 78.855a3.528 3.528 0 0 1-2.555-1.036c-.71-.691-1.061-1.527-1.052-2.518-.009-.963.342-1.79 1.052-2.481a3.528 3.528 0 0 1 2.555-1.036c.959 0 1.798.345 2.508 1.036.72.69 1.079 1.518 1.089 2.481a3.44 3.44 0 0 1-.508 1.79 3.675 3.675 0 0 1-1.319 1.282 3.403 3.403 0 0 1-1.77.482z" fill="white"/>
<path d="M356.84 45.445h6.032v23.24c-.009 2.135-.471 3.962-1.374 5.498-.913 1.536-2.177 2.708-3.8 3.535-1.614 .818-3.505 1.237-5.654 1.237-1.965 0-3.726-.355-5.294-1.046-1.568-.69-2.813-1.726-3.726-3.09-.923-1.363-1.375-3.063-1.3" fill="white"/>

</svg>